<?xml version="1.0" encoding="UTF-8"?>
<svg version="1.1" xmlns="http://www.w3.org/2000/svg" width="256" height="256">
<path d="M0 0 C1.16692383 0.36206543 1.16692383 0.36206543 2.35742188 0.73144531 C33.75125117 10.72267601 61.99419186 32.6360122 77.35107422 62.13720703 C78.97625172 65.39143703 80.49969996 68.68676361 82 72 C82.72316406 73.54107422 82.72316406 73.54107422 83.4609375 75.11328125 C88.84503915 87.17040584 92.09522576 100.6256712 92.23828125 113.828125 C92.2480751 114.57033798 92.25786896 115.31255096 92.26795959 116.07725525 C92.58436703 146.23992118 92.58436703 146.23992118 88 160 C87.55988268 161.43749597 87.11977893 162.8749961 86.6796875 164.3125 C76.39831664 196.55665958 52.71116789 223.67723782 22.76074219 239.28393555 C16.10054379 242.59252248 9.2271782 245.17506008 2.12109375 247.35058594 C0.7671919 247.7651093 -0.58243661 248.19404708 -1.92578125 248.64160156 C-22.71267701 255.4306964 -51.34742865 254.94167847 -72 248 C-72.66225586 247.78569336 -73.32451172 247.57138672 -74.00683594 247.35058594 C-94.12315189 240.76026211 -110.58497529 230.5487258 -126 216 C-126.74894531 215.31550781 -127.49789062 214.63101563 -128.26953125 213.92578125 C-148.44751337 194.8079383 -162.93997395 165.19429161 -164.16113281 137.32226562 C-164.19885344 133.80459792 -164.23112078 130.28738072 -164.24023438 126.76953125 C-164.24985601 124.53346326 -164.28089788 122.29834981 -164.3125 120.0625 C-164.40768213 107.25718295 -162.49066234 95.22578966 -158.3125 83.0625 C-158.05831299 82.31653564 -157.80412598 81.57057129 -157.54223633 80.80200195 C-151.00868163 62.3003674 -140.55801703 47.06542785 -127 33 C-126.34515625 32.28199219 -125.6903125 31.56398437 -125.015625 30.82421875 C-110.87919847 15.751405 -91.46763941 6.09010134 -72 0 C-71.28875977 -0.2273584 -70.57751953 -0.4547168 -69.84472656 -0.68896484 C-48.69838164 -7.12588453 -21.00329781 -6.69850399 0 0 Z " fill="#FCFAFA" transform="translate(164,4)"/>
<path d="M0 0 C79.86 0 159.72 0 242 0 C232.81130633 30.62897889 209.57425008 56.14546278 181.625 71.3125 C174.39826763 75.07823705 166.90710057 77.96690203 159.12109375 80.35058594 C157.7671919 80.7651093 156.41756339 81.19404708 155.07421875 81.64160156 C134.28732299 88.4306964 105.65257135 87.94167847 85 81 C84.00661621 80.67854004 84.00661621 80.67854004 82.99316406 80.35058594 C62.87684811 73.76026211 46.41502471 63.5487258 31 49 C29.87658203 47.97326172 29.87658203 47.97326172 28.73046875 46.92578125 C16.29881064 35.14727506 5.13755625 18.3590607 0 2 C0 1.34 0 0.68 0 0 Z " fill="#000000" transform="translate(7,171)"/>
<path d="M0 0 C1.16692383 0.36206543 1.16692383 0.36206543 2.35742188 0.73144531 C33.86193649 10.75790212 62.02851137 32.73656624 77.45751953 62.30712891 C80.55096525 68.44330812 82.80209864 74.40629593 85 81 C5.14 81 -74.72 81 -157 81 C-150.69809408 62.09428225 -140.73024517 47.24410165 -127 33 C-126.34515625 32.28199219 -125.6903125 31.56398437 -125.015625 30.82421875 C-110.87919847 15.751405 -91.46763941 6.09010134 -72 0 C-71.28875977 -0.2273584 -70.57751953 -0.4547168 -69.84472656 -0.68896484 C-48.69838164 -7.12588453 -21.00329781 -6.69850399 0 0 Z " fill="#CD1025" transform="translate(164,4)"/>
<path d="M0 0 C40.92 0 81.84 0 124 0 C124 0.66 124 1.32 124 2 C120.7 2 117.4 2 114 2 C114 2.99 114 3.98 114 5 C115.32 5.33 116.64 5.66 118 6 C117.88557539 7.60495567 117.75805306 9.20898119 117.625 10.8125 C117.55539063 11.70582031 117.48578125 12.59914063 117.4140625 13.51953125 C117 16 117 16 115 19 C109.93514732 19.70672363 106.57907324 17.99814105 102 16 C99.28836222 15.58013054 99.28836222 15.58013054 97 16 C94.63525554 18.36474446 94.725295 18.91808609 94.60522461 22.13916016 C94.56856186 22.99410065 94.53189911 23.84904114 94.49412537 24.72988892 C94.44869347 26.12042984 94.44869347 26.12042984 94.40234375 27.5390625 C94.36315323 28.49388519 94.32396271 29.44870789 94.28358459 30.4324646 C94.15924491 33.49636557 94.04775058 36.56056236 93.9375 39.625 C93.82157827 42.66788504 93.7029102 45.71062624 93.58070374 48.75326538 C93.50530676 50.64749402 93.43384048 52.54188456 93.3669281 54.43643188 C93.16583788 59.68024855 92.72978722 64.80258329 92 70 C92.99 69.34 93.98 68.68 95 68 C95.58687784 64.65386488 95.58687784 64.65386488 95.6875 60.875 C95.75324219 59.59367187 95.81898437 58.31234375 95.88671875 56.9921875 C95.92410156 56.00476563 95.96148437 55.01734375 96 54 C96.33 54 96.66 54 97 54 C97.495 59.445 97.495 59.445 98 65 C100.64 62.69 103.28 60.38 106 58 C107.25541557 61.76624671 106.37061958 63.37188934 105 67 C103.68 67 102.36 67 101 67 C100.505 68.485 100.505 68.485 100 70 C99.1646875 70.928125 99.1646875 70.928125 98.3125 71.875 C96.67765582 73.97363863 96.67765582 73.97363863 97.5625 76.625 C99.21210121 79.35042809 100.10385196 79.8266441 103 81 C105.19053988 81.43426032 105.19053988 81.43426032 107.5234375 81.58984375 C108.4009668 81.66315918 109.27849609 81.73647461 110.18261719 81.81201172 C114.99430746 82.13306904 119.8067422 82.36629591 124.625 82.5625 C125.62917969 82.60568359 126.63335937 82.64886719 127.66796875 82.69335938 C130.11188383 82.79809859 132.55587617 82.90027256 135 83 C135 83.33 135 83.66 135 84 C90.45 84 45.9 84 0 84 C-3.92872336 69.85659591 -6.20360874 58.90702626 -6.24023438 44.76953125 C-6.24985601 42.53346326 -6.28089788 40.29834981 -6.3125 38.0625 C-6.41317029 24.58312068 -3.89923266 12.9974422 0 0 Z " fill="#FEFEFE" transform="translate(6,86)"/>
<path d="M0 0 C3.63 0 7.26 0 11 0 C11.495 0.99 11.495 0.99 12 2 C10.02 2.33 8.04 2.66 6 3 C6 4.98 6 6.96 6 9 C8.97 9.495 8.97 9.495 12 10 C12 12.33333333 12 14.66666667 12 17 C12.99 16.34 13.98 15.68 15 15 C15 15.66 15 16.32 15 17 C16.41805831 16.71517632 17.83440379 16.42181856 19.25 16.125 C20.03890625 15.96257812 20.8278125 15.80015625 21.640625 15.6328125 C24.01538769 15.08860475 24.01538769 15.08860475 26.06640625 13.9140625 C29.17462346 12.44472346 31.74489003 13.26299397 35 14 C36.53967754 17.07935508 36.36131798 20.37403893 36.53515625 23.76171875 C36.57813339 24.54456741 36.62111053 25.32741608 36.66539001 26.13398743 C36.75574439 27.80087846 36.84385894 29.46789216 36.92993164 31.13500977 C37.05965426 33.63270778 37.19818087 36.12979636 37.33789062 38.62695312 C37.86864404 48.42995771 38.12434542 58.18223805 38 68 C34.63135128 66.41352021 32.60097358 64.67747281 30 62 C28.02876544 60.2958046 26.01708246 58.6503402 24 57 C24.495 60.96 24.495 60.96 25 65 C26.32 65 27.64 65 29 65 C30.75 67.5 30.75 67.5 32 70 C31.01 70.495 31.01 70.495 30 71 C30 70.34 30 69.68 30 69 C29.01 69.33 28.02 69.66 27 70 C27 70.99 27 71.98 27 73 C27.66 73 28.32 73 29 73 C29 73.66 29 74.32 29 75 C15.57142857 79.28571429 15.57142857 79.28571429 11 77 C9.00978479 77.09723451 9.00978479 77.09723451 6.875 77.4375 C5.59625 77.623125 4.3175 77.80875 3 78 C6.16664666 78.02940458 9.33325747 78.04693315 12.5 78.0625 C13.8303125 78.07506836 13.8303125 78.07506836 15.1875 78.08789062 C20.54887991 78.10760158 25.71670502 77.9633531 31 77 C31.33 76.34 31.66 75.68 32 75 C31.505 76.98 31.505 76.98 31 79 C18.18040215 82.36251747 -1.32308048 83.70176827 -14 79 C-16.33984375 76.41796875 -16.33984375 76.41796875 -18 74 C-17.35330586 72.65686601 -16.68096422 71.32608822 -16 70 C-15.54625 69.0925 -15.0925 68.185 -14.625 67.25 C-14.08875 66.5075 -13.5525 65.765 -13 65 C-11.68 65 -10.36 65 -9 65 C-8.67 62.36 -8.34 59.72 -8 57 C-13.32445686 61.57156336 -13.32445686 61.57156336 -18.375 66.4375 C-20 68 -20 68 -22 68 C-21.87943471 63.3266414 -21.75511428 58.65340111 -21.62768555 53.98022461 C-21.58504982 52.39887023 -21.54334507 50.81749041 -21.50268555 49.23608398 C-21.38329073 44.60621841 -21.2461165 39.97745766 -21.08233643 35.34893799 C-21.02653683 33.75705692 -20.97436239 32.16504539 -20.92547607 30.57293701 C-20.84948671 28.22354491 -20.75362125 25.87576605 -20.65234375 23.52734375 C-20.63200577 22.81349014 -20.61166779 22.09963654 -20.5907135 21.364151 C-20.45028101 18.51339094 -20.28570162 16.43741494 -18.70532227 14.01782227 C-15.6603627 12.20043695 -12.28384159 13.21080793 -9 14 C-7.66666667 14.66666667 -6.33333333 15.33333333 -5 16 C-1.83304044 16.16724737 -1.83304044 16.16724737 1 16 C2.59138085 11.82262526 3.21278058 8.46839215 3 4 C2.01 3.67 1.02 3.34 0 3 C0 2.01 0 1.02 0 0 Z " fill="#F3ECD2" transform="translate(120,88)"/>
<path d="M0 0 C0.33 6.93 0.66 13.86 1 21 C1.66 21.33 2.32 21.66 3 22 C3 23.98 3 25.96 3 28 C3.66 24.37 4.32 20.74 5 17 C5.66 17.66 6.32 18.32 7 19 C7.33 16.03 7.66 13.06 8 10 C8.33 10 8.66 10 9 10 C9.495 19.405 9.495 19.405 10 29 C10.66 29.33 11.32 29.66 12 30 C12 22.74 12 15.48 12 8 C12.33 8 12.66 8 13 8 C13.22519106 11.79086457 13.42729249 15.58261058 13.625 19.375 C13.68945312 20.45523438 13.75390625 21.53546875 13.8203125 22.6484375 C13.871875 23.6796875 13.9234375 24.7109375 13.9765625 25.7734375 C14.02893066 26.72653809 14.08129883 27.67963867 14.13525391 28.66162109 C14 31 14 31 12 33 C12.32326553 36.59679066 12.32326553 36.59679066 13 40 C14.32 40 15.64 40 17 40 C18.75 42.5 18.75 42.5 20 45 C19.01 45.495 19.01 45.495 18 46 C18 45.34 18 44.68 18 44 C17.01 44.33 16.02 44.66 15 45 C15 45.99 15 46.98 15 48 C15.66 48 16.32 48 17 48 C17 48.66 17 49.32 17 50 C3.57142857 54.28571429 3.57142857 54.28571429 -1 52 C-2.99021521 52.09723451 -2.99021521 52.09723451 -5.125 52.4375 C-6.40375 52.623125 -7.6825 52.80875 -9 53 C-5.83335334 53.02940458 -2.66674253 53.04693315 0.5 53.0625 C1.8303125 53.07506836 1.8303125 53.07506836 3.1875 53.08789062 C8.54887991 53.10760158 13.71670502 52.9633531 19 52 C19.495 51.01 19.495 51.01 20 50 C19.67 51.32 19.34 52.64 19 54 C6.18040215 57.36251747 -13.32308048 58.70176827 -26 54 C-28.33984375 51.41796875 -28.33984375 51.41796875 -30 49 C-29.35330586 47.65686601 -28.68096422 46.32608822 -28 45 C-27.54625 44.0925 -27.0925 43.185 -26.625 42.25 C-26.08875 41.5075 -25.5525 40.765 -25 40 C-23.68 40 -22.36 40 -21 40 C-20.505 37.03 -20.505 37.03 -20 34 C-19.34 34 -18.68 34 -18 34 C-17.34 32.68 -16.68 31.36 -16 30 C-14.35 30.33 -12.7 30.66 -11 31 C-11 32.65 -11 34.3 -11 36 C-9.75974826 32.27924477 -10.39322156 29.84293009 -11 26 C-11 24.68 -11 23.36 -11 22 C-10.34 21.67 -9.68 21.34 -9 21 C-8.67 14.07 -8.34 7.14 -8 0 C-5 -1 -5 -1 0 0 Z " fill="#EBDEB2" transform="translate(132,113)"/>
<path d="M0 0 C1.53967754 3.07935508 1.36131798 6.37403893 1.53515625 9.76171875 C1.57813339 10.54456741 1.62111053 11.32741608 1.66539001 12.13398743 C1.75574439 13.80087846 1.84385894 15.46789216 1.92993164 17.13500977 C2.05965426 19.63270778 2.19818087 22.12979636 2.33789062 24.62695312 C2.86864404 34.42995771 3.12434542 44.18223805 3 54 C-0.34641 52.42809551 -2.45949393 50.70440969 -5 48 C-5.79337769 47.45315552 -5.79337769 47.45315552 -6.6027832 46.89526367 C-8.88410097 43.80075558 -8.36501697 40.30714066 -8.29296875 36.61328125 C-8.28872391 35.79627243 -8.28447906 34.97926361 -8.28010559 34.13749695 C-8.26331691 31.52882893 -8.22566519 28.92093438 -8.1875 26.3125 C-8.17245337 24.54363095 -8.15876492 22.77474979 -8.14648438 21.00585938 C-8.11341286 16.67027504 -8.0616299 12.33526864 -8 8 C-8.99 8.495 -8.99 8.495 -10 9 C-10.46651207 11.12576782 -10.46651207 11.12576782 -10.625 13.5625 C-10.69976562 14.38878906 -10.77453125 15.21507813 -10.8515625 16.06640625 C-10.90054688 16.70449219 -10.94953125 17.34257813 -11 18 C-11.33 18 -11.66 18 -12 18 C-12 15.69 -12 13.38 -12 11 C-13.010625 11.061875 -14.02125 11.12375 -15.0625 11.1875 C-19.55499372 10.97357173 -22.01085961 9.95386468 -26 8 C-25.67 7.01 -25.34 6.02 -25 5 C-23.4840625 5.061875 -23.4840625 5.061875 -21.9375 5.125 C-17.90499804 4.99698406 -14.76671176 4.43135047 -11 3 C-10.67 2.01 -10.34 1.02 -10 0 C-6.26840331 -1.24386556 -3.81984796 -0.77811718 0 0 Z " fill="#FAF7EE" transform="translate(155,102)"/>
<path d="M0 0 C1.32 0 2.64 0 4 0 C6.98291012 5.11356021 8.36844835 11.10482642 8 17 C8.61875 16.649375 9.2375 16.29875 9.875 15.9375 C10.57625 15.628125 11.2775 15.31875 12 15 C12.66 15.33 13.32 15.66 14 16 C14.33 14.68 14.66 13.36 15 12 C15.495 13.485 15.495 13.485 16 15 C15.34 16.32 14.68 17.64 14 19 C11.03 18.67 8.06 18.34 5 18 C5.33 18.99 5.66 19.98 6 21 C3 22 3 22 0 21 C-2.33299825 20.96045766 -4.66708189 20.95598268 -7 21 C-6.01 20.34 -5.02 19.68 -4 19 C-5.98 18.67 -7.96 18.34 -10 18 C-9.34 18.33 -8.68 18.66 -8 19 C-8.33 19.99 -8.66 20.98 -9 22 C-9.66 22 -10.32 22 -11 22 C-11 21.34 -11 20.68 -11 20 C-12.98 20.99 -12.98 20.99 -15 22 C-13.90368631 23.32131818 -13.90368631 23.32131818 -11.1875 23.125 C-8.57164058 23.02241728 -6.4806638 22.76328117 -4 22 C-3.67 22.66 -3.34 23.32 -3 24 C-1.10466658 24.46523063 -1.10466658 24.46523063 1.0625 24.625 C2.361875 24.74875 3.66125 24.8725 5 25 C5 25.66 5 26.32 5 27 C1.04 27.495 1.04 27.495 -3 28 C0.16664666 28.02940458 3.33325747 28.04693315 6.5 28.0625 C7.8303125 28.07506836 7.8303125 28.07506836 9.1875 28.08789062 C14.54887991 28.10760158 19.71670502 27.9633531 25 27 C25.33 26.34 25.66 25.68 26 25 C25.67 26.32 25.34 27.64 25 29 C12.18040215 32.36251747 -7.32308048 33.70176827 -20 29 C-22.33984375 26.41796875 -22.33984375 26.41796875 -24 24 C-23.35330586 22.65686601 -22.68096422 21.32608822 -22 20 C-21.319375 18.63875 -21.319375 18.63875 -20.625 17.25 C-20.08875 16.5075 -19.5525 15.765 -19 15 C-17.68 15 -16.36 15 -15 15 C-14.67 14.34 -14.34 13.68 -14 13 C-13.34 13.66 -12.68 14.32 -12 15 C-8.91652174 15.16681109 -8.91652174 15.16681109 -6 15 C-6 15.66 -6 16.32 -6 17 C-5.34 17 -4.68 17 -4 17 C-4 15.35 -4 13.7 -4 12 C-3.34 12 -2.68 12 -2 12 C-2.04125 10.7625 -2.0825 9.525 -2.125 8.25 C-2.13658291 4.98362038 -1.8568702 2.7853053 0 0 Z " fill="#DDC476" transform="translate(126,138)"/>
<path d="M0 0 C0.66 0 1.32 0 2 0 C2.71511973 12.34858538 3.14420386 24.63051353 3 37 C1.51171875 35.69921875 1.51171875 35.69921875 0 34 C-0.1875 30.8125 -0.1875 30.8125 0 28 C-0.33 29.65 -0.66 31.3 -1 33 C-1.99 32.67 -2.98 32.34 -4 32 C-4.1953125 29.98177083 -4.390625 27.96354167 -4.5859375 25.9453125 C-4.86374749 23.77331755 -4.86374749 23.77331755 -7 22 C-7.66 25.3 -8.32 28.6 -9 32 C-9.66 31.67 -10.32 31.34 -11 31 C-10.67 29.02 -10.34 27.04 -10 25 C-10.99 24.67 -11.98 24.34 -13 24 C-13 17.07 -13 10.14 -13 3 C-8.80078125 3.14648438 -8.80078125 3.14648438 -4.6015625 3.29296875 C-3.31378906 3.14794922 -3.31378906 3.14794922 -2 3 C-1.34 2.01 -0.68 1.02 0 0 Z " fill="#DBC271" transform="translate(145,110)"/>
<path d="M0 0 C0.515625 0.185625 1.03125 0.37125 1.5625 0.5625 C4.75138107 1.26657112 4.75138107 1.26657112 11 0 C11 6.93 11 13.86 11 21 C10.01 21.33 9.02 21.66 8 22 C8.26876953 23.24716797 8.26876953 23.24716797 8.54296875 24.51953125 C8.75566406 25.60621094 8.96835938 26.69289062 9.1875 27.8125 C9.40792969 28.89144531 9.62835938 29.97039062 9.85546875 31.08203125 C10 34 10 34 8.55078125 35.88671875 C8.03902344 36.25410156 7.52726562 36.62148437 7 37 C7.495 34.03 7.495 34.03 8 31 C7.01 31.33 6.02 31.66 5 32 C4.01 32 3.02 32 2 32 C1.34 32.66 0.68 33.32 0 34 C-3.34227002 23.97318993 -0.76936031 10.45505704 0 0 Z " fill="#DABF6B" transform="translate(113,113)"/>
<path d="M0 0 C0.495 0.99 0.495 0.99 1 2 C2.32 2 3.64 2 5 2 C6.75 4.5 6.75 4.5 8 7 C7.34 7.33 6.68 7.66 6 8 C6 7.34 6 6.68 6 6 C5.01 6.33 4.02 6.66 3 7 C3 7.99 3 8.98 3 10 C3.66 10 4.32 10 5 10 C5 10.66 5 11.32 5 12 C-0.32932432 13.70084819 -5.43109483 14.52013969 -11 15 C-11.33 14.01 -11.66 13.02 -12 12 C-15.3 12 -18.6 12 -22 12 C-22 11.01 -22 10.02 -22 9 C-22.99 9 -23.98 9 -25 9 C-25.33 9.66 -25.66 10.32 -26 11 C-28.31 11 -30.62 11 -33 11 C-33.33 10.01 -33.66 9.02 -34 8 C-32.35 7.67 -30.7 7.34 -29 7 C-29 7.66 -29 8.32 -29 9 C-28.34 8.34 -27.68 7.68 -27 7 C-27.33 6.34 -27.66 5.68 -28 5 C-27.01 4.67 -26.02 4.34 -25 4 C-24.67 4.33 -24.34 4.66 -24 5 C-22.33382885 5.04063832 -20.66611905 5.042721 -19 5 C-19.99 5.66 -20.98 6.32 -22 7 C-20.68 7.33 -19.36 7.66 -18 8 C-17.67 7.34 -17.34 6.68 -17 6 C-17 6.66 -17 7.32 -17 8 C-15.68 7.67 -14.36 7.34 -13 7 C-13 6.34 -13 5.68 -13 5 C-10.03 5 -7.06 5 -4 5 C-3.67 4.01 -3.34 3.02 -3 2 C-2.34 2 -1.68 2 -1 2 C-0.67 1.34 -0.34 0.68 0 0 Z " fill="#E9D9A8" transform="translate(144,151)"/>
<path d="M0 0 C0.08703823 3.43734063 0.14040272 6.87439837 0.1875 10.3125 C0.22520508 11.77719727 0.22520508 11.77719727 0.26367188 13.27148438 C0.27817383 14.67817383 0.27817383 14.67817383 0.29296875 16.11328125 C0.31653442 17.40939331 0.31653442 17.40939331 0.34057617 18.73168945 C-0.06759322 21.45018536 -0.89592904 22.30363829 -3 24 C-6.875 22.125 -6.875 22.125 -8 21 C-8.08685603 19.43827255 -8.10702219 17.87270656 -8.09765625 16.30859375 C-8.09443359 15.36435547 -8.09121094 14.42011719 -8.08789062 13.44726562 C-8.07951172 12.45404297 -8.07113281 11.46082031 -8.0625 10.4375 C-8.05798828 9.44041016 -8.05347656 8.44332031 -8.04882812 7.41601562 C-8.03700007 4.94395151 -8.02051849 2.47200482 -8 0 C-4.71023192 -1.09658936 -3.28696233 -0.79953138 0 0 Z " fill="#FEFEFE" transform="translate(132,113)"/>
<path d="M0 0 C0.66 0.66 1.32 1.32 2 2 C2.33 2 2.66 2 3 2 C2.35205164 18.33413219 1.68650162 34.66744224 1 51 C-0.32 51.66 -1.64 52.32 -3 53 C-2.87943471 48.3266414 -2.75511428 43.65340111 -2.62768555 38.98022461 C-2.58504982 37.39887023 -2.54334507 35.81749041 -2.50268555 34.23608398 C-2.28047805 25.61937104 -1.99657345 17.00953851 -1.52734375 8.40234375 C-1.49024796 7.67173233 -1.45315216 6.94112091 -1.41493225 6.18836975 C-1.11869393 1.11869393 -1.11869393 1.11869393 0 0 Z " fill="#C59B1A" transform="translate(101,103)"/>
<path d="M0 0 C0.66 0 1.32 0 2 0 C2.71511973 12.34858538 3.14420386 24.63051353 3 37 C1.51171875 35.69921875 1.51171875 35.69921875 0 34 C-0.1875 30.8125 -0.1875 30.8125 0 28 C-0.33 29.65 -0.66 31.3 -1 33 C-1.99 32.67 -2.98 32.34 -4 32 C-4 22.43 -4 12.86 -4 3 C-3.34 3 -2.68 3 -2 3 C-1.34 2.01 -0.68 1.02 0 0 Z " fill="#C8A22A" transform="translate(145,110)"/>
<path d="M0 0 C0.99 0.33 1.98 0.66 3 1 C3.29083455 5.56710803 3.57532292 10.13455662 3.85449219 14.70239258 C3.949848 16.24904463 4.04679526 17.79559957 4.14550781 19.34204102 C4.79761665 29.57948429 5.13607829 39.74026388 5 50 C3.68 49.34 2.36 48.68 1 48 C0.31496965 31.99105928 -0.15457298 16.02406534 0 0 Z " fill="#C49A17" transform="translate(153,106)"/>
<path d="M0 0 C0.99 0.33 1.98 0.66 3 1 C2.95591481 6.78466118 2.88615355 12.56822379 2.79248047 18.35229492 C2.76423851 20.32030498 2.74304006 22.28842915 2.72900391 24.2565918 C2.70761879 27.0844173 2.6609926 29.91086615 2.609375 32.73828125 C2.60814636 33.61962234 2.60691772 34.50096344 2.60565186 35.40901184 C2.45851623 41.53231125 2.45851623 41.53231125 -0.03808594 44.07885742 C-1.0092334 44.534823 -1.0092334 44.534823 -2 45 C-1.87964455 40.84135152 -1.75532334 36.6828439 -1.62768555 32.52441406 C-1.5849896 31.1165673 -1.54328555 29.70869002 -1.50268555 28.30078125 C-1.22907957 18.8427967 -0.75483609 9.43406191 0 0 Z " fill="#C1950C" transform="translate(105,107)"/>
<path d="M0 0 C0.66 0 1.32 0 2 0 C2.28765632 5.12273072 2.57238439 10.24561306 2.85449219 15.36865234 C2.95070779 17.10860504 3.04769996 18.84851499 3.14550781 20.58837891 C3.2865883 23.10047529 3.42480295 25.61271615 3.5625 28.125 C3.60624756 28.89303955 3.64999512 29.6610791 3.69506836 30.45239258 C3.95782539 35.30943245 4.03860505 40.13576429 4 45 C1.7026077 43.32253441 0.20020627 41.94505904 -0.40322876 39.09658813 C-0.57612081 36.69011057 -0.63215633 34.30724061 -0.64453125 31.89453125 C-0.66343918 31.01472092 -0.68234711 30.13491058 -0.701828 29.22843933 C-0.73827328 27.37355903 -0.76543396 25.51847613 -0.78393555 23.66333008 C-0.81250501 20.81199961 -0.86756971 17.96215089 -0.92773438 15.11132812 C-0.9598657 13.30992251 -0.99051634 11.50848975 -1.01953125 9.70703125 C-1.0340181 8.84978958 -1.04850494 7.99254791 -1.06343079 7.10932922 C-1.08200436 5.07286109 -1.04661009 3.03601939 -1 1 C-0.67 0.67 -0.34 0.34 0 0 Z " fill="#C1950C" transform="translate(149,107)"/>
<path d="M0 0 C3.63 0 7.26 0 11 0 C11.33 0.66 11.66 1.32 12 2 C10.02 2.33 8.04 2.66 6 3 C6 4.98 6 6.96 6 9 C8.97 9.495 8.97 9.495 12 10 C12 12.33333333 12 14.66666667 12 17 C12.99 16.34 13.98 15.68 15 15 C15 15.66 15 16.32 15 17 C17.97 16.67 20.94 16.34 24 16 C19.38002183 19.66412062 15.92326789 20.43078312 10 20 C9.34 19.01 8.68 18.02 8 17 C7.34 17.66 6.68 18.32 6 19 C5.87625 18.360625 5.7525 17.72125 5.625 17.0625 C5.41875 16.381875 5.2125 15.70125 5 15 C4.34 14.67 3.68 14.34 3 14 C3 10.7 3 7.4 3 4 C2.01 3.67 1.02 3.34 0 3 C0 2.01 0 1.02 0 0 Z " fill="#E4D194" transform="translate(120,88)"/>
<path d="M0 0 C-0.99 0.66 -1.98 1.32 -3 2 C-1.68 2.33 -0.36 2.66 1 3 C1.33 2.34 1.66 1.68 2 1 C2 1.66 2 2.32 2 3 C2.84304687 2.98839844 3.68609375 2.97679687 4.5546875 2.96484375 C5.65039062 2.95582031 6.74609375 2.94679687 7.875 2.9375 C9.51082031 2.92009766 9.51082031 2.92009766 11.1796875 2.90234375 C14 3 14 3 16 4 C16 3.34 16 2.68 16 2 C16.99 2 17.98 2 19 2 C19 2.66 19 3.32 19 4 C19.66 4 20.32 4 21 4 C21 4.66 21 5.32 21 6 C18.525 5.505 18.525 5.505 16 5 C16 5.66 16 6.32 16 7 C13.69 6.67 11.38 6.34 9 6 C9 5.34 9 4.68 9 4 C8.60167969 4.49113281 8.20335937 4.98226562 7.79296875 5.48828125 C5.4878245 7.43183425 4.2803281 7.316536 1.3125 7.1875 C0.10013672 7.14689453 0.10013672 7.14689453 -1.13671875 7.10546875 C-1.75160156 7.07066406 -2.36648437 7.03585938 -3 7 C-3 6.01 -3 5.02 -3 4 C-3.99 4 -4.98 4 -6 4 C-6.33 4.66 -6.66 5.32 -7 6 C-9.31 6 -11.62 6 -14 6 C-14.33 5.01 -14.66 4.02 -15 3 C-13.35 2.67 -11.7 2.34 -10 2 C-10 2.66 -10 3.32 -10 4 C-9.34 3.34 -8.68 2.68 -8 2 C-8.33 1.34 -8.66 0.68 -9 0 C-5.93109813 -1.53445094 -3.29905734 -0.54984289 0 0 Z " fill="#F6EFDB" transform="translate(125,156)"/>
<path d="M0 0 C1.32 0 2.64 0 4 0 C6.03219488 3.40351338 6.36891039 6.3232927 6.625 10.25 C6.69976562 11.32765625 6.77453125 12.4053125 6.8515625 13.515625 C6.92503906 14.74539062 6.92503906 14.74539062 7 16 C6.34 16 5.68 16 5 16 C4.67 15.01 4.34 14.02 4 13 C3.67 14.32 3.34 15.64 3 17 C2.34 17 1.68 17 1 17 C0.67 16.34 0.34 15.68 0 15 C-0.99 15.33 -1.98 15.66 -3 16 C-2.88544319 14.08268082 -2.75793742 12.1661325 -2.625 10.25 C-2.55539063 9.18265625 -2.48578125 8.1153125 -2.4140625 7.015625 C-2.0271777 4.19793568 -1.44313834 2.4169634 0 0 Z " fill="#C29710" transform="translate(126,138)"/>
<path d="M0 0 C0.66 0 1.32 0 2 0 C2.33 11.55 2.66 23.1 3 35 C1.68 35.66 0.36 36.32 -1 37 C-1.14420386 24.63051353 -0.71511973 12.34858538 0 0 Z " fill="#BF920B" transform="translate(109,110)"/>
<path d="M0 0 C1.65 0 3.3 0 5 0 C5 0.66 5 1.32 5 2 C6.32 2 7.64 2 9 2 C8.67 3.32 8.34 4.64 8 6 C7.34 6 6.68 6 6 6 C6 6.66 6 7.32 6 8 C-0.46453674 9.93631171 -6.27621577 10.24556441 -13 10.125 C-13.96550781 10.11597656 -14.93101562 10.10695312 -15.92578125 10.09765625 C-18.28412099 10.07430635 -20.64192286 10.04156047 -23 10 C-22.67 9.34 -22.34 8.68 -22 8 C-19.36 8 -16.72 8 -14 8 C-13.67 7.34 -13.34 6.68 -13 6 C-12.34 6.66 -11.68 7.32 -11 8 C-8.72040935 8.05946555 -8.72040935 8.05946555 -6.1875 7.6875 C-4.85138672 7.52507812 -4.85138672 7.52507812 -3.48828125 7.359375 C-0.96846839 6.99544598 1.51992734 6.57868362 4 6 C4 5.34 4 4.68 4 4 C3.34 4 2.68 4 2 4 C2 3.01 2 2.02 2 1 C1.34 0.67 0.68 0.34 0 0 Z " fill="#FAF7EC" transform="translate(145,157)"/>
<path d="M0 0 C1.98 0 3.96 0 6 0 C6 0.66 6 1.32 6 2 C4.02 2.99 4.02 2.99 2 4 C2.33 4.66 2.66 5.32 3 6 C4.32 6 5.64 6 7 6 C6.67 7.65 6.34 9.3 6 11 C4.741875 11.020625 3.48375 11.04125 2.1875 11.0625 C1.47980469 11.07410156 0.77210937 11.08570313 0.04296875 11.09765625 C-2 11 -2 11 -5 10 C-6.1875 7.4375 -6.1875 7.4375 -7 5 C-4.69 3.68 -2.38 2.36 0 1 C0 0.67 0 0.34 0 0 Z " fill="#F1E7C8" transform="translate(109,155)"/>
<path d="M0 0 C2.63799428 2.63799428 2.44709714 4.26257561 2.75 7.9375 C2.89695313 9.52884766 2.89695313 9.52884766 3.046875 11.15234375 C3 14 3 14 1 17 C0.01 17 -0.98 17 -2 17 C-2.125 14.125 -2.125 14.125 -2 11 C-1.34 10.34 -0.68 9.68 0 9 C-2.97 8.505 -2.97 8.505 -6 8 C-6.33 8.66 -6.66 9.32 -7 10 C-7.125 4.25 -7.125 4.25 -6 2 C-4.02111039 1.27306096 -2.02045442 0.60183749 0 0 Z " fill="#F0E6C6" transform="translate(132,89)"/>
<path d="M0 0 C1.65 0.33 3.3 0.66 5 1 C4.67 2.98 4.34 4.96 4 7 C4.66 7 5.32 7 6 7 C6 8.65 6 10.3 6 12 C5.34 12 4.68 12 4 12 C4 11.34 4 10.68 4 10 C1.69 10.33 -0.62 10.66 -3 11 C-4.0625 9.1875 -4.0625 9.1875 -5 7 C-4.67 6.01 -4.34 5.02 -4 4 C-3.34 4 -2.68 4 -2 4 C-1.34 2.68 -0.68 1.36 0 0 Z " fill="#F3ECD2" transform="translate(116,143)"/>
<path d="M0 0 C0.66 0 1.32 0 2 0 C2.71511973 12.34858538 3.14420386 24.63051353 3 37 C1.51831055 35.9831543 1.51831055 35.9831543 0 34 C-0.26154123 31.34165372 -0.34939122 28.92314896 -0.29296875 26.26953125 C-0.28872391 25.51911057 -0.28447906 24.76868988 -0.28010559 23.99552917 C-0.2633245 21.60081974 -0.2256749 19.20695466 -0.1875 16.8125 C-0.17245235 15.1881632 -0.15876409 13.5638132 -0.14648438 11.93945312 C-0.11342305 7.95931052 -0.06164594 3.97979837 0 0 Z " fill="#C29712" transform="translate(145,110)"/>
<path d="M0 0 C1.98 0 3.96 0 6 0 C6 5.94 6 11.88 6 18 C2.37879712 14.37879712 0.24160266 10.87909841 -0.1875 5.765625 C-0.1875 3.84273401 -0.10106491 1.92023323 0 0 Z " fill="#BF9103" transform="translate(117,114)"/>
<path d="M0 0 C2.97 0.495 2.97 0.495 6 1 C6.51941561 7.10313344 5.11313722 11.70539436 2 17 C1.34 17.33 0.68 17.66 0 18 C0 12.06 0 6.12 0 0 Z " fill="#BF9102" transform="translate(133,114)"/>
<path d="M0 0 C2.3125 1.875 2.3125 1.875 3.25 4.375 C3.3125 6.875 3.3125 6.875 1.3125 9.875 C0.6525 8.885 -0.0075 7.895 -0.6875 6.875 C-1.0175 7.865 -1.3475 8.855 -1.6875 9.875 C-3.6675 10.205 -5.6475 10.535 -7.6875 10.875 C-7.6875 9.225 -7.6875 7.575 -7.6875 5.875 C-7.0275 5.875 -6.3675 5.875 -5.6875 5.875 C-6.0175 3.895 -6.3475 1.915 -6.6875 -0.125 C-3.86097829 -1.27654588 -2.87424892 -1.20317396 0 0 Z " fill="#F4ECD3" transform="translate(141.6875,144.125)"/>
<path d="M0 0 C0.66 0 1.32 0 2 0 C2.33 1.65 2.66 3.3 3 5 C2.34 5 1.68 5 1 5 C1.00523682 5.90766113 1.01047363 6.81532227 1.01586914 7.75048828 C1.03297684 11.13867842 1.04548213 14.52682221 1.05493164 17.91503906 C1.05994045 19.37761157 1.06674938 20.84017911 1.07543945 22.30273438 C1.08765698 24.41277291 1.09326295 26.52274487 1.09765625 28.6328125 C1.10289307 29.90012207 1.10812988 31.16743164 1.11352539 32.47314453 C1.00813747 35.747196 0.62450226 38.78889152 0 42 C-0.33 42 -0.66 42 -1 42 C-1.66 29.46 -2.32 16.92 -3 4 C-1.68 3.67 -0.36 3.34 1 3 C0.67 2.01 0.34 1.02 0 0 Z " fill="#E4D193" transform="translate(153,102)"/>
<path d="M0 0 C0.66 0 1.32 0 2 0 C2.07408587 4.09333905 2.1285704 8.18641933 2.16479492 12.28027344 C2.17989358 13.67324622 2.20037444 15.06617138 2.22631836 16.45898438 C2.26265122 18.45942885 2.27811192 20.46021827 2.29296875 22.4609375 C2.3086792 23.66540527 2.32438965 24.86987305 2.34057617 26.11083984 C2.22818604 27.0642627 2.1157959 28.01768555 2 29 C1.01 29.66 0.02 30.32 -1 31 C-1.13430792 20.6135207 -0.76214036 10.35694312 0 0 Z " fill="#C29712" transform="translate(113,113)"/>
<path d="M0 0 C0.33 0.66 0.66 1.32 1 2 C2.89533342 2.46523063 2.89533342 2.46523063 5.0625 2.625 C6.361875 2.74875 7.66125 2.8725 9 3 C9 3.66 9 4.32 9 5 C6.94921875 5.22786458 4.8984375 5.45572917 2.84765625 5.68359375 C0.98859771 5.81886614 0.98859771 5.81886614 0 7 C-1.68608966 7.07205511 -3.37500659 7.08386068 -5.0625 7.0625 C-5.98160156 7.05347656 -6.90070313 7.04445312 -7.84765625 7.03515625 C-8.55792969 7.02355469 -9.26820312 7.01195312 -10 7 C-9.34 6.34 -8.68 5.68 -8 5 C-7.67 4.01 -7.34 3.02 -7 2 C-4.39757586 0.35179805 -3.13751221 0 0 0 Z " fill="#F6F0DC" transform="translate(122,160)"/>
<path d="M0 0 C0.33 0 0.66 0 1 0 C1.33 2.97 1.66 5.94 2 9 C2.66 8.34 3.32 7.68 4 7 C4.70173653 11.38585329 5.10834375 15.55790643 5 20 C4.34 20 3.68 20 3 20 C3 19.34 3 18.68 3 18 C2.01 18.33 1.02 18.66 0 19 C0 12.73 0 6.46 0 0 Z " fill="#F1E8C9" transform="translate(115,123)"/>
<path d="M0 0 C0.33 0 0.66 0 1 0 C1 6.27 1 12.54 1 19 C0.01 18.67 -0.98 18.34 -2 18 C-2 18.66 -2 19.32 -2 20 C-2.66 20 -3.32 20 -4 20 C-3.67 15.71 -3.34 11.42 -3 7 C-2.34 7.66 -1.68 8.32 -1 9 C-0.67 6.03 -0.34 3.06 0 0 Z " fill="#F1E8C9" transform="translate(140,123)"/>
<path d="M0 0 C0.33 0.66 0.66 1.32 1 2 C1.66 2 2.32 2 3 2 C3 2.66 3 3.32 3 4 C-2.32932432 5.70084819 -7.43109483 6.52013969 -13 7 C-13.66 5.35 -14.32 3.7 -15 2 C-14.01 1.67 -13.02 1.34 -12 1 C-12 1.66 -12 2.32 -12 3 C-9.69 3.33 -7.38 3.66 -5 4 C-5 3.34 -5 2.68 -5 2 C-3.35 2.33 -1.7 2.66 0 3 C0 2.01 0 1.02 0 0 Z " fill="#DFC880" transform="translate(146,159)"/>
<path d="M0 0 C0.33 0 0.66 0 1 0 C1.33 10.23 1.66 20.46 2 31 C1.01 31 0.02 31 -1 31 C-1.02908633 26.77084783 -1.04682792 22.54172148 -1.0625 18.3125 C-1.07087891 17.11431641 -1.07925781 15.91613281 -1.08789062 14.68164062 C-1.09111328 13.52470703 -1.09433594 12.36777344 -1.09765625 11.17578125 C-1.10289307 10.11270752 -1.10812988 9.04963379 -1.11352539 7.9543457 C-1.00716844 5.1865491 -0.62894788 2.69207103 0 0 Z " fill="#EDE0B7" transform="translate(148,117)"/>
<path d="M0 0 C2.03627575 4.07255149 2.23848858 5.67416475 2.1953125 10.078125 C2.18886719 11.23828125 2.18242188 12.3984375 2.17578125 13.59375 C2.15902344 14.8003125 2.14226562 16.006875 2.125 17.25 C2.11597656 18.47203125 2.10695313 19.6940625 2.09765625 20.953125 C2.07409513 23.96894782 2.04119706 26.98437492 2 30 C1.01 30 0.02 30 -1 30 C-0.67 20.1 -0.34 10.2 0 0 Z " fill="#EDE0B7" transform="translate(107,118)"/>
<path d="M0 0 C0.13794954 7.06608191 -0.25194283 13.97360585 -1 21 C-3.30655645 18.69344355 -4.125117 17.13499743 -5 14 C-4.1875 11.625 -4.1875 11.625 -3 9 C-2.6186926 6.67402489 -2.27539746 4.34087842 -2 2 C-2.66 1.67 -3.32 1.34 -4 1 C-1 0 -1 0 0 0 Z " fill="#D4B653" transform="translate(141,113)"/>
<path d="M0 0 C0.99 0 1.98 0 3 0 C3 0.66 3 1.32 3 2 C3.66 2 4.32 2 5 2 C5 2.66 5 3.32 5 4 C3.35 3.67 1.7 3.34 0 3 C0 3.66 0 4.32 0 5 C-2.31 4.67 -4.62 4.34 -7 4 C-7 3.34 -7 2.68 -7 2 C-7.45375 2.495 -7.9075 2.99 -8.375 3.5 C-10 5 -10 5 -12 5 C-11.34 3.68 -10.68 2.36 -10 1 C-2.25 0.875 -2.25 0.875 0 2 C0 1.34 0 0.68 0 0 Z " fill="#FBF8F0" transform="translate(141,158)"/>
<path d="M0 0 C0.33 0 0.66 0 1 0 C1 1.65 1 3.3 1 5 C1.61875 4.649375 2.2375 4.29875 2.875 3.9375 C3.57625 3.628125 4.2775 3.31875 5 3 C5.66 3.33 6.32 3.66 7 4 C7.33 2.68 7.66 1.36 8 0 C8.33 0.99 8.66 1.98 9 3 C8.34 4.32 7.68 5.64 7 7 C4.03 6.67 1.06 6.34 -2 6 C-1.67 6.99 -1.34 7.98 -1 9 C-1.99 9.33 -2.98 9.66 -4 10 C-4.66 9.67 -5.32 9.34 -6 9 C-6 8.34 -6 7.68 -6 7 C-2.53846154 4 -2.53846154 4 0 4 C0 2.68 0 1.36 0 0 Z " fill="#DDC579" transform="translate(133,150)"/>
<path d="M0 0 C0 0.33 0 0.66 0 1 C-1.21623047 0.85691406 -1.21623047 0.85691406 -2.45703125 0.7109375 C-10.04417425 -0.04866005 -16.58835106 0.20278653 -24 2 C-24 1.34 -24 0.68 -24 0 C-14.80987282 -4.23658345 -9.19012718 -4.23658345 0 0 Z " fill="#E4D296" transform="translate(140,113)"/>
<path d="M0 0 C1.98 0 3.96 0 6 0 C6 1.98 6 3.96 6 6 C4.02 6 2.04 6 0 6 C-0.33 6.66 -0.66 7.32 -1 8 C-1.125 2.25 -1.125 2.25 0 0 Z " fill="#FBF9F1" transform="translate(126,91)"/>
<path d="M0 0 C0.33 0 0.66 0 1 0 C1.41644184 2.10018513 1.80753303 4.20541042 2.1875 6.3125 C2.40792969 7.48425781 2.62835938 8.65601563 2.85546875 9.86328125 C3 13 3 13 1.55078125 14.91796875 C1.03902344 15.27503906 0.52726562 15.63210937 0 16 C0.33 14.02 0.66 12.04 1 10 C0.01 10.33 -0.98 10.66 -2 11 C-2.99 11 -3.98 11 -5 11 C-5.66 11.66 -6.32 12.32 -7 13 C-6.67 11.35 -6.34 9.7 -6 8 C-4.68 7.67 -3.36 7.34 -2 7 C-2 7.66 -2 8.32 -2 9 C-1.34 9 -0.68 9 0 9 C-0.185625 7.88625 -0.37125 6.7725 -0.5625 5.625 C-1 2 -1 2 0 0 Z " fill="#DEC679" transform="translate(120,134)"/>
<path d="M0 0 C3.63 0 7.26 0 11 0 C11.33 0.66 11.66 1.32 12 2 C10.02 2.33 8.04 2.66 6 3 C6 3.66 6 4.32 6 5 C4.02 4.34 2.04 3.68 0 3 C0 2.01 0 1.02 0 0 Z " fill="#C9A32E" transform="translate(120,88)"/>
<path d="M0 0 C3.48990809 3.48990809 3.43262017 4.44673513 3.6875 9.1875 C3.75324219 10.27417969 3.81898437 11.36085937 3.88671875 12.48046875 C3.92410156 13.31191406 3.96148437 14.14335937 4 15 C2.02 15.99 2.02 15.99 0 17 C0 11.39 0 5.78 0 0 Z " fill="#CEAB3B" transform="translate(108,130)"/>
<path d="M0 0 C1.65 0 3.3 0 5 0 C5 0.66 5 1.32 5 2 C6.32 2 7.64 2 9 2 C8.67 3.32 8.34 4.64 8 6 C7.34 6 6.68 6 6 6 C5.67 6.66 5.34 7.32 5 8 C4.67 6.68 4.34 5.36 4 4 C3.34 4 2.68 4 2 4 C2 3.01 2 2.02 2 1 C1.34 0.67 0.68 0.34 0 0 Z " fill="#F2E8CB" transform="translate(145,157)"/>
<path d="M0 0 C4.75 0.875 4.75 0.875 7 2 C9.3329866 2.04022391 11.66706666 2.04320247 14 2 C14 2.66 14 3.32 14 4 C14.99 4.33 15.98 4.66 17 5 C16.34 5.66 15.68 6.32 15 7 C13.24700288 6.40458546 11.49770252 5.79828086 9.75 5.1875 C8.77546875 4.85105469 7.8009375 4.51460938 6.796875 4.16796875 C4.14051698 3.05867958 2.20310061 1.8306717 0 0 Z " fill="#E3CF90" transform="translate(108,102)"/>
<path d="M0 0 C0.99 0.66 1.98 1.32 3 2 C3 2.99 3 3.98 3 5 C2.46375 5.12375 1.9275 5.2475 1.375 5.375 C-1.4638286 6.12206016 -4.22223202 7.05303364 -7 8 C-6 6 -5 4 -4 2 C-2.68 2 -1.36 2 0 2 C0 1.34 0 0.68 0 0 Z " fill="#DDC477" transform="translate(111,151)"/>
<path d="M0 0 C0.33 0.99 0.66 1.98 1 3 C1.66 3 2.32 3 3 3 C2.67 4.32 2.34 5.64 2 7 C0.68 7.33 -0.64 7.66 -2 8 C-2.93423645 4.98968256 -3.04449911 4.13349732 -2 1 C-1.34 0.67 -0.68 0.34 0 0 Z " fill="#EBDDB0" transform="translate(114,146)"/>
<path d="M0 0 C2.625 0.375 2.625 0.375 5 1 C4.67 2.98 4.34 4.96 4 7 C3.67 6.01 3.34 5.02 3 4 C2.34 4 1.68 4 1 4 C1 4.66 1 5.32 1 6 C0.34 6 -0.32 6 -1 6 C-1.625 4.125 -1.625 4.125 -2 2 C-1.34 1.34 -0.68 0.68 0 0 Z " fill="#FBF9F1" transform="translate(116,143)"/>
<path d="M0 0 C1.75 1.4375 1.75 1.4375 3 3 C2.67 3.99 2.34 4.98 2 6 C1.34 6 0.68 6 0 6 C0 5.34 0 4.68 0 4 C-0.66 4 -1.32 4 -2 4 C-2.33 4.99 -2.66 5.98 -3 7 C-3.33 5.02 -3.66 3.04 -4 1 C-2.1875 0.3125 -2.1875 0.3125 0 0 Z " fill="#FBF9F1" transform="translate(139,143)"/>
<path d="M0 0 C0.33 0.66 0.66 1.32 1 2 C1.66 2 2.32 2 3 2 C3 2.66 3 3.32 3 4 C-4.42857143 6.42857143 -4.42857143 6.42857143 -8 5 C-7.01 4.67 -6.02 4.34 -5 4 C-5 3.34 -5 2.68 -5 2 C-3.35 2.33 -1.7 2.66 0 3 C0 2.01 0 1.02 0 0 Z " fill="#D1B149" transform="translate(146,159)"/>
<path d="M0 0 C0.33 0.66 0.66 1.32 1 2 C2.32 2 3.64 2 5 2 C6.75 4.5 6.75 4.5 8 7 C7.01 7.495 7.01 7.495 6 8 C6 7.34 6 6.68 6 6 C5.13375 5.7834375 5.13375 5.7834375 4.25 5.5625 C2.16666667 5.04166667 0.08333333 4.52083333 -2 4 C-1.34 2.68 -0.68 1.36 0 0 Z " fill="#DBC273" transform="translate(144,151)"/>
<path d="M0 0 C0.99 0 1.98 0 3 0 C3.25 6.625 3.25 6.625 1 10 C-0.85064319 6.87703962 -1.29356154 4.62059232 -1 1 C-0.67 0.67 -0.34 0.34 0 0 Z " fill="#F0E6C5" transform="translate(132,135)"/>
<path d="M0 0 C-0.33 1.65 -0.66 3.3 -1 5 C-3.31 4.67 -5.62 4.34 -8 4 C-6.27302455 0.54604909 -3.70696841 0 0 0 Z " fill="#D7BA5F" transform="translate(122,160)"/>
<path d="M0 0 C2.64 0.33 5.28 0.66 8 1 C8 1.66 8 2.32 8 3 C3.545 3.495 3.545 3.495 -1 4 C-0.67 2.68 -0.34 1.36 0 0 Z " fill="#D3B451" transform="translate(123,162)"/>
<path d="M0 0 C0.99 0 1.98 0 3 0 C3.625 2.3125 3.625 2.3125 4 5 C3.01 6.485 3.01 6.485 2 8 C0.29159719 6.36587557 -0.93453047 5.13093906 -2 3 C-1.34 3 -0.68 3 0 3 C0 2.01 0 1.02 0 0 Z " fill="#EFE4BF" transform="translate(141,146)"/>
<path d="M0 0 C0.33 0 0.66 0 1 0 C1.33 2.64 1.66 5.28 2 8 C1.01 8 0.02 8 -1 8 C-1.625 5.125 -1.625 5.125 -2 2 C-1.34 1.34 -0.68 0.68 0 0 Z " fill="#E5D296" transform="translate(134,142)"/>
<path d="M0 0 C0.66 0 1.32 0 2 0 C2.33 1.65 2.66 3.3 3 5 C2.34 5 1.68 5 1 5 C0.67 7.31 0.34 9.62 0 12 C-0.33 12 -0.66 12 -1 12 C-1 9.03 -1 6.06 -1 3 C-0.34 3 0.32 3 1 3 C0.67 2.01 0.34 1.02 0 0 Z " fill="#DDC679" transform="translate(153,102)"/>
<path d="M0 0 C2 0 2 0 3.625 1.5 C4.07875 1.995 4.5325 2.49 5 3 C4.67 3.99 4.34 4.98 4 6 C1.525 5.01 1.525 5.01 -1 4 C-0.67 2.68 -0.34 1.36 0 0 Z " fill="#D9BE69" transform="translate(108,158)"/>
<path d="M0 0 C0.99 0 1.98 0 3 0 C2.67 1.98 2.34 3.96 2 6 C1.01 6 0.02 6 -1 6 C-1.33 4.68 -1.66 3.36 -2 2 C-1.34 2 -0.68 2 0 2 C0 1.34 0 0.68 0 0 Z " fill="#F5EED8" transform="translate(124,100)"/>
<path d="M0 0 C1.32 0 2.64 0 4 0 C4 0.66 4 1.32 4 2 C4.99 2.33 5.98 2.66 7 3 C4.69 3.33 2.38 3.66 0 4 C-0.33 3.01 -0.66 2.02 -1 1 C-0.67 0.67 -0.34 0.34 0 0 Z " fill="#FAF7ED" transform="translate(111,158)"/>
<path d="M0 0 C1.65 0.99 3.3 1.98 5 3 C4.67 3.66 4.34 4.32 4 5 C3.34 4.67 2.68 4.34 2 4 C2 4.66 2 5.32 2 6 C1.34 6 0.68 6 0 6 C0 4.02 0 2.04 0 0 Z " fill="#FDFCF9" transform="translate(136,137)"/>
<path d="M0 0 C0 1.98 0 3.96 0 6 C-0.66 6 -1.32 6 -2 6 C-2 5.34 -2 4.68 -2 4 C-2.99 4.33 -3.98 4.66 -5 5 C-3.33333333 0 -3.33333333 0 0 0 Z " fill="#FDFCF8" transform="translate(120,137)"/>
</svg>
